<svg width="5194" height="1451" viewBox="0 0 5194 1451" fill="none" xmlns="http://www.w3.org/2000/svg">
<path d="M837.999 1254.05C837.999 1158.23 819.125 1063.34 782.456 974.813C745.786 886.285 692.038 805.845 624.281 738.089C556.525 670.332 476.085 616.584 387.557 579.914C299.028 543.245 204.144 524.371 108.322 524.371C108.322 524.371 100.837 595.315 108.322 659.312C114.355 710.903 108.322 758.242 108.322 758.242C382.148 758.242 604.128 980.222 604.128 1254.05H837.999Z" fill="#172554"/>
<path fill-rule="evenodd" clip-rule="evenodd" d="M782.454 476.187C819.124 387.659 837.997 292.774 837.997 196.952L721.062 196.952L604.127 196.952C604.127 470.778 382.147 692.758 108.32 692.758L76.3818 756.839L108.32 926.629C204.143 926.629 299.027 907.755 387.556 871.086C476.084 834.416 556.523 780.668 624.28 712.912C692.037 645.155 745.784 564.716 782.454 476.187Z" fill="#1E40AF"/>
<path fill-rule="evenodd" clip-rule="evenodd" d="M1318.79 786.521L1343.16 692.758C1069.33 692.758 847.353 470.778 847.353 196.952L730.417 196.952L613.481 196.952C613.481 292.774 632.355 387.659 669.025 476.187C705.695 564.716 759.442 645.155 827.199 712.911C894.956 780.668 975.395 834.416 1063.92 871.086C1152.45 907.755 1247.34 926.629 1343.16 926.629L1318.79 786.521Z" fill="#172554"/>
<path fill-rule="evenodd" clip-rule="evenodd" d="M1223.57 772.761C1023.8 822.237 871.821 992.83 850.04 1202.12C828.565 1231.65 630.905 1249.28 615.258 1203.19C620.737 1124.77 638.86 1047.64 669.027 974.813C705.696 886.284 759.444 805.845 827.201 738.088C894.958 670.331 975.396 616.584 1063.92 579.914C1104.41 563.143 1146.23 550.094 1188.86 540.871C1188.86 540.871 1261.73 591.36 1272.22 648.474C1281.88 701.036 1223.57 772.761 1223.57 772.761Z" fill="#1E40AF"/>
<path fill-rule="evenodd" clip-rule="evenodd" d="M1460.03 720.823C1458.85 628.184 1440.03 536.589 1404.55 450.942C1367.88 362.414 1314.13 281.975 1246.38 214.218C1178.62 146.461 1098.18 92.7132 1009.65 56.0435C921.124 19.3738 826.24 0.50013 730.417 0.500122C634.595 0.500114 539.71 19.3738 451.182 56.0435C362.653 92.7132 282.214 146.461 214.457 214.218C146.7 281.974 92.9528 362.413 56.2831 450.942C20.8072 536.589 1.9874 628.184 0.79971 720.823H0.739746C0.739746 722.382 0.744745 723.941 0.754737 725.5C0.744745 727.059 0.739746 728.618 0.739746 730.177H0.79971C1.9874 822.816 20.8072 914.411 56.2831 1000.06C92.9528 1088.59 146.7 1169.03 214.457 1236.78C282.214 1304.54 362.653 1358.29 451.182 1394.96C539.71 1431.63 634.595 1450.5 730.417 1450.5C826.24 1450.5 921.124 1431.63 1009.65 1394.96C1098.18 1358.29 1178.62 1304.54 1246.38 1236.78C1314.13 1169.03 1367.88 1088.59 1404.55 1000.06C1440.03 914.411 1458.85 822.816 1460.03 730.177H1460.09C1460.09 728.618 1460.09 727.059 1460.08 725.5C1460.09 723.941 1460.09 722.382 1460.09 720.823H1460.03ZM1226.2 725.5C1223.69 453.828 1002.68 234.371 730.417 234.371C458.152 234.371 237.143 453.828 234.632 725.5C237.143 997.172 458.152 1216.63 730.417 1216.63C1002.68 1216.63 1223.69 997.172 1226.2 725.5Z" fill="white"/>
<path d="M2146.66 920.38C2153.25 920.38 2159.09 922.925 2164.18 928.014L2211.77 979.652C2185.43 1012.28 2152.95 1037.28 2114.33 1054.64C2076.02 1072 2029.92 1080.68 1976.03 1080.68C1927.84 1080.68 1884.43 1072.45 1845.81 1055.99C1807.5 1039.52 1774.72 1016.62 1747.47 987.286C1720.23 957.949 1699.28 922.925 1684.61 882.212C1670.24 841.5 1663.06 797.046 1663.06 748.85C1663.06 700.055 1670.84 655.451 1686.41 615.038C1701.97 574.326 1723.83 539.301 1751.97 509.965C1780.4 480.628 1814.23 457.877 1853.45 441.712C1892.66 425.247 1936.07 417.015 1983.67 417.015C2030.96 417.015 2072.87 424.798 2109.39 440.365C2146.22 455.931 2177.5 476.287 2203.24 501.433L2162.83 557.562C2160.43 561.154 2157.29 564.298 2153.4 566.992C2149.81 569.686 2144.72 571.033 2138.13 571.033C2133.64 571.033 2129 569.836 2124.21 567.441C2119.42 564.747 2114.18 561.603 2108.5 558.011C2102.81 554.12 2096.22 549.929 2088.74 545.438C2081.26 540.948 2072.57 536.907 2062.7 533.314C2052.82 529.423 2041.29 526.28 2028.12 523.885C2015.25 521.19 2000.28 519.843 1983.22 519.843C1954.18 519.843 1927.54 525.082 1903.29 535.56C1879.34 545.738 1858.69 560.705 1841.32 580.463C1823.96 599.921 1810.49 623.869 1800.91 652.308C1791.33 680.447 1786.54 712.628 1786.54 748.85C1786.54 785.371 1791.63 817.851 1801.81 846.29C1812.29 874.729 1826.35 898.677 1844.02 918.135C1861.68 937.593 1882.48 952.561 1906.43 963.038C1930.38 973.216 1956.13 978.305 1983.67 978.305C2000.13 978.305 2014.95 977.407 2028.12 975.611C2041.59 973.815 2053.86 970.971 2064.94 967.079C2076.32 963.188 2086.94 958.249 2096.82 952.261C2107 945.975 2117.03 938.341 2126.91 929.361C2129.9 926.667 2133.04 924.571 2136.34 923.074C2139.63 921.278 2143.07 920.38 2146.66 920.38ZM2391.96 612.793V1073.5H2280.6V612.793H2391.96ZM2407.22 478.532C2407.22 488.112 2405.28 497.092 2401.39 505.474C2397.49 513.856 2392.25 521.19 2385.67 527.477C2379.38 533.763 2371.9 538.852 2363.22 542.744C2354.54 546.336 2345.26 548.132 2335.38 548.132C2325.8 548.132 2316.67 546.336 2307.99 542.744C2299.6 538.852 2292.27 533.763 2285.98 527.477C2279.7 521.19 2274.61 513.856 2270.72 505.474C2267.12 497.092 2265.33 488.112 2265.33 478.532C2265.33 468.654 2267.12 459.374 2270.72 450.692C2274.61 442.011 2279.7 434.527 2285.98 428.241C2292.27 421.954 2299.6 417.015 2307.99 413.423C2316.67 409.531 2325.8 407.585 2335.38 407.585C2345.26 407.585 2354.54 409.531 2363.22 413.423C2371.9 417.015 2379.38 421.954 2385.67 428.241C2392.25 434.527 2397.49 442.011 2401.39 450.692C2405.28 459.374 2407.22 468.654 2407.22 478.532ZM2609.65 692.721C2624.02 665.18 2641.08 643.627 2660.84 628.06C2680.6 612.194 2703.95 604.261 2730.89 604.261C2752.14 604.261 2769.21 608.901 2782.08 618.181L2774.9 701.252C2773.4 706.641 2771.15 710.532 2768.16 712.927C2765.47 715.023 2761.72 716.07 2756.93 716.07C2752.44 716.07 2745.71 715.322 2736.73 713.825C2728.05 712.329 2719.52 711.58 2711.13 711.58C2698.86 711.58 2687.93 713.376 2678.35 716.969C2668.77 720.561 2660.09 725.799 2652.31 732.685C2644.83 739.27 2638.09 747.353 2632.1 756.932C2626.42 766.512 2621.03 777.438 2615.94 789.712V1073.5H2505.03V612.793H2570.14C2581.51 612.793 2589.45 614.889 2593.94 619.08C2598.43 622.971 2601.42 630.156 2602.92 640.633L2609.65 692.721ZM3156.93 710.233C3153.64 714.424 3150.35 717.717 3147.05 720.112C3144.06 722.507 3139.57 723.704 3133.58 723.704C3127.89 723.704 3122.36 722.058 3116.97 718.765C3111.58 715.172 3105.14 711.281 3097.66 707.09C3090.17 702.6 3081.19 698.708 3070.72 695.415C3060.54 691.823 3047.82 690.027 3032.55 690.027C3013.09 690.027 2996.03 693.619 2981.36 700.803C2966.69 707.689 2954.42 717.717 2944.54 730.889C2934.96 744.06 2927.77 760.076 2922.99 778.935C2918.2 797.495 2915.8 818.599 2915.8 842.249C2915.8 866.796 2918.35 888.649 2923.43 907.807C2928.82 926.966 2936.46 943.131 2946.33 956.303C2956.21 969.175 2968.19 979.054 2982.26 985.939C2996.33 992.525 3012.19 995.818 3029.85 995.818C3047.52 995.818 3061.74 993.722 3072.51 989.531C3083.59 985.041 3092.87 980.251 3100.35 975.162C3107.84 969.774 3114.27 964.984 3119.66 960.793C3125.35 956.303 3131.64 954.058 3138.52 954.058C3147.5 954.058 3154.24 957.5 3158.73 964.385L3190.61 1004.8C3178.33 1019.17 3165.01 1031.29 3150.64 1041.17C3136.28 1050.75 3121.31 1058.53 3105.74 1064.52C3090.47 1070.21 3074.61 1074.25 3058.14 1076.64C3041.98 1079.04 3025.81 1080.24 3009.65 1080.24C2981.21 1080.24 2954.42 1075 2929.27 1064.52C2904.13 1053.74 2882.12 1038.18 2863.26 1017.82C2844.4 997.464 2829.44 972.618 2818.36 943.281C2807.58 913.645 2802.2 879.967 2802.2 842.249C2802.2 808.421 2806.99 777.139 2816.56 748.401C2826.44 719.363 2840.81 694.367 2859.67 673.412C2878.53 652.158 2901.88 635.544 2929.72 623.57C2957.56 611.596 2989.59 605.609 3025.81 605.609C3060.24 605.609 3090.32 611.147 3116.07 622.223C3142.11 633.299 3165.46 649.165 3186.12 669.82L3156.93 710.233ZM3657.08 612.793V1073.5H3589.28C3574.61 1073.5 3565.33 1066.76 3561.44 1053.29L3553.81 1016.47C3534.95 1035.63 3514.14 1051.2 3491.39 1063.17C3468.64 1074.85 3441.85 1080.68 3411.01 1080.68C3385.87 1080.68 3363.57 1076.49 3344.11 1068.11C3324.95 1059.43 3308.78 1047.31 3295.61 1031.74C3282.44 1016.17 3272.41 997.763 3265.53 976.509C3258.94 954.956 3255.65 931.307 3255.65 905.562V612.793H3366.56V905.562C3366.56 933.701 3372.99 955.554 3385.87 971.121C3399.04 986.388 3418.65 994.021 3444.69 994.021C3463.85 994.021 3481.81 989.83 3498.57 981.449C3515.34 972.767 3531.2 960.943 3546.17 945.975V612.793H3657.08ZM3879.31 406.238V1073.5H3768.4V406.238H3879.31ZM4233.19 876.824C4201.16 878.321 4174.22 881.165 4152.37 885.356C4130.51 889.247 4113 894.336 4099.83 900.623C4086.66 906.909 4077.23 914.243 4071.54 922.625C4065.85 931.007 4063.01 940.138 4063.01 950.016C4063.01 969.474 4068.7 983.394 4080.07 991.776C4091.75 1000.16 4106.86 1004.35 4125.42 1004.35C4148.17 1004.35 4167.78 1000.31 4184.25 992.225C4201.01 983.843 4217.33 971.27 4233.19 954.507V876.824ZM3979.04 677.005C4032.02 628.509 4095.79 604.261 4170.33 604.261C4197.27 604.261 4221.37 608.752 4242.62 617.732C4263.87 626.414 4281.84 638.687 4296.5 654.553C4311.17 670.12 4322.25 688.829 4329.73 710.682C4337.52 732.535 4341.41 756.483 4341.41 782.527V1073.5H4291.12C4280.64 1073.5 4272.56 1072 4266.87 1069.01C4261.18 1065.72 4256.69 1059.28 4253.4 1049.7L4243.52 1016.47C4231.84 1026.95 4220.47 1036.23 4209.39 1044.31C4198.32 1052.1 4186.79 1058.68 4174.82 1064.07C4162.84 1069.46 4149.97 1073.5 4136.2 1076.19C4122.73 1079.19 4107.76 1080.68 4091.3 1080.68C4071.84 1080.68 4053.88 1078.14 4037.41 1073.05C4020.95 1067.66 4006.73 1059.73 3994.75 1049.25C3982.78 1038.77 3973.5 1025.75 3966.91 1010.19C3960.33 994.62 3957.04 976.509 3957.04 955.854C3957.04 944.179 3958.98 932.654 3962.87 921.278C3966.77 909.603 3973.05 898.527 3981.73 888.05C3990.71 877.572 4002.24 867.694 4016.31 858.414C4030.38 849.134 4047.59 841.051 4067.95 834.166C4088.6 827.281 4112.55 821.743 4139.79 817.552C4167.03 813.061 4198.17 810.367 4233.19 809.469V782.527C4233.19 751.694 4226.61 728.943 4213.43 714.274C4200.26 699.307 4181.25 691.823 4156.41 691.823C4138.45 691.823 4123.48 693.918 4111.5 698.109C4099.83 702.3 4089.5 707.09 4080.52 712.478C4071.54 717.567 4063.31 722.207 4055.82 726.398C4048.64 730.589 4040.56 732.685 4031.58 732.685C4023.79 732.685 4017.21 730.739 4011.82 726.847C4006.43 722.656 4002.09 717.867 3998.8 712.478L3979.04 677.005ZM4550.49 692.721C4564.86 665.18 4581.92 643.627 4601.68 628.06C4621.44 612.194 4644.78 604.261 4671.73 604.261C4692.98 604.261 4710.04 608.901 4722.92 618.181L4715.73 701.252C4714.24 706.641 4711.99 710.532 4709 712.927C4706.3 715.023 4702.56 716.07 4697.77 716.07C4693.28 716.07 4686.54 715.322 4677.56 713.825C4668.88 712.329 4660.35 711.58 4651.97 711.58C4639.7 711.58 4628.77 713.376 4619.19 716.969C4609.61 720.561 4600.93 725.799 4593.15 732.685C4585.66 739.27 4578.93 747.353 4572.94 756.932C4567.25 766.512 4561.86 777.438 4556.77 789.712V1073.5H4445.86V612.793H4510.97C4522.35 612.793 4530.28 614.889 4534.77 619.08C4539.26 622.971 4542.26 630.156 4543.75 640.633L4550.49 692.721ZM5064.54 790.161C5064.54 775.792 5062.44 762.321 5058.25 749.748C5054.36 736.876 5048.37 725.65 5040.29 716.07C5032.21 706.491 5021.88 699.007 5009.31 693.619C4997.03 687.931 4982.67 685.087 4966.2 685.087C4934.17 685.087 4908.87 694.218 4890.31 712.478C4872.05 730.739 4860.38 756.633 4855.29 790.161H5064.54ZM4853.04 857.067C4854.84 880.716 4859.03 901.221 4865.62 918.584C4872.2 935.647 4880.88 949.867 4891.66 961.242C4902.44 972.318 4915.16 980.7 4929.83 986.388C4944.8 991.776 4961.26 994.47 4979.22 994.47C4997.18 994.47 5012.6 992.375 5025.47 988.184C5038.64 983.993 5050.02 979.353 5059.6 974.264C5069.48 969.175 5078.01 964.535 5085.19 960.344C5092.68 956.153 5099.86 954.058 5106.75 954.058C5116.03 954.058 5122.91 957.5 5127.4 964.385L5159.28 1004.8C5147.01 1019.17 5133.24 1031.29 5117.97 1041.17C5102.71 1050.75 5086.69 1058.53 5069.93 1064.52C5053.46 1070.21 5036.55 1074.25 5019.19 1076.64C5002.12 1079.04 4985.51 1080.24 4969.34 1080.24C4937.31 1080.24 4907.53 1075 4879.99 1064.52C4852.45 1053.74 4828.5 1038.03 4808.14 1017.37C4787.79 996.416 4771.77 970.672 4760.1 940.138C4748.42 909.304 4742.58 873.681 4742.58 833.268C4742.58 801.836 4747.67 772.349 4757.85 744.809C4768.03 716.969 4782.55 692.87 4801.41 672.514C4820.56 651.859 4843.76 635.544 4871.01 623.57C4898.55 611.596 4929.53 605.609 4963.96 605.609C4992.99 605.609 5019.79 610.249 5044.33 619.529C5068.88 628.809 5089.98 642.429 5107.65 660.39C5125.31 678.052 5139.08 699.905 5148.96 725.949C5159.14 751.694 5164.22 781.18 5164.22 814.409C5164.22 831.172 5162.43 842.548 5158.84 848.535C5155.24 854.223 5148.36 857.067 5138.18 857.067H4853.04Z" fill="white"/>
</svg>
